#!OML:ASF H:\Dans Jumps\Project 1\Capture day 1\Session 1\subject.ASF
:FULLY-SPECIFIED
:DEGREES
91
root 0.454774 13.8652 -16.3638 21.9993 -2.33439 -2.18022
lowerback 21.545 0.0963848 -1.37893
upperback 7.33498 -0.0277824 2.42716
thorax -4.03981 -0.0557622 3.39936
lowerneck -19.3269 2.15145 -0.22232
upperneck 13.7016 3.67828 -3.88
head 7.45586 1.36135 -0.806574
rclavicle -1.00386e-014 1.29707e-014
rhumerus -48.8194 -13.9593 -69.4893
rradius 27.7611
rwrist 24.0281
rhand -16.5767 -24.8172
rfingers 7.12502
rthumb 9.64381 -54.5764
lclavicle -1.00386e-014 1.29707e-014
lhumerus -48.4716 -1.72834 85.806
lradius 21.6426
lwrist 18.6691
lhand -26.4527 -3.61994
lfingers 7.12502
lthumb 0.108557 26.3598
rfemur -76.6642 -2.19662 22.09
rtibia 84.3887
rfoot -27.9964 -7.99365
rtoes -0.344443
lfemur -75.6193 9.8845 -22.1124
ltibia 84.9174
lfoot -27.239 12.985
ltoes -6.92875
92
root 0.452092 13.8007 -16.3723 22.2051 -2.26704 -2.14507
lowerback 21.7533 0.118655 -1.4163
upperback 7.35911 -0.00646463 2.44025
thorax -4.1207 -0.0449172 3.43241
lowerneck -19.4015 2.13717 -0.219128
upperneck 13.4647 3.65186 -3.89443
head 7.39005 1.35147 -0.814883
rclavicle -3.27995e-015 7.40473e-015
rhumerus -50.0322 -14.1325 -69.0052
rradius 27.665
rwrist 24.0446
rhand -16.4325 -24.7112
rfingers 7.12502
rthumb 9.78289 -54.4639
lclavicle -3.27995e-015 7.40473e-015
lhumerus -49.6591 -1.41048 85.6901
lradius 21.4
lwrist 18.4673
lhand -25.9952 -3.31407
lfingers 7.12502
lthumb 0.550367 26.665
rfemur -77.3787 -2.21694 22.0832
rtibia 85.1089
rfoot -28.2088 -8.14985
rtoes -0.213232
lfemur -76.3355 9.79304 -22.175
ltibia 85.6065
lfoot -27.3962 13.1135
ltoes -6.96406
93
root 0.449061 13.7364 -16.3809 22.4073 -2.19095 -2.11552
lowerback 21.9712 0.142528 -1.44613
upperback 7.3781 0.01863 2.45751
thorax -4.21214 -0.0319844 3.46483
lowerneck -19.4734 2.11663 -0.224095
upperneck 13.2381 3.61729 -3.89613
head 7.32662 1.33831 -0.818657
rclavicle -4.72114e-015 -5.46658e-015
rhumerus -51.2237 -14.291 -68.5244
rradius 27.5561
rwrist 24.1062
rhand -16.3611 -24.6095
rfingers 7.12502
rthumb 9.85179 -54.359
lclavicle -4.72114e-015 -5.46658e-015
lhumerus -50.818 -1.1006 85.5521
lradius 21.1666
lwrist 18.2711
lhand -25.6054 -3.08624
lfingers 7.12502
lthumb 0.926847 26.8915
rfemur -78.0856 -2.23249 22.084
rtibia 85.8196
rfoot -28.412 -8.33442
rtoes -0.104771
lfemur -77.0477 9.69635 -22.2282
ltibia 86.2884
lfoot -27.5455 13.2497
ltoes -6.98071
94
root 0.445676 13.6725 -16.3895 22.6048 -2.10782 -2.08928
lowerback 22.2009 0.168218 -1.47218
upperback 7.39274 0.046988 2.47838
thorax -4.31441 -0.017242 3.4983
lowerneck -19.551 2.0901 -0.237862
upperneck 13.0279 3.57522 -3.88303
head 7.26897 1.32211 -0.81698
rclavicle -1.63997e-015 7.20594e-015
rhumerus -52.3898 -14.4304 -68.0533
rradius 27.4425
rwrist 24.2074
rhand -16.3276 -24.5302
rfingers 7.12502
rthumb 9.88409 -54.2781
lclavicle -1.63997e-015 7.20594e-015
lhumerus -51.947 -0.806649 85.3968
lradius 20.9445
lwrist 18.0901
lhand -25.3672 -2.99493
lfingers 7.12502
lthumb 1.15689 26.9817
rfemur -78.7838 -2.24543 22.0936
rtibia 86.5194
rfoot -28.6051 -8.56443
rtoes -0.0663613
lfemur -77.7515 9.59335 -22.2726
ltibia 86.961
lfoot -27.6875 13.3973
ltoes -6.96625
95
root 0.441877 13.6091 -16.3982 22.7982 -2.01556 -2.06836
lowerback 22.4404 0.194922 -1.49395
upperback 7.40416 0.0778093 2.50437
thorax -4.42508 -0.00113872 3.53432
lowerneck -19.6281 2.06113 -0.250021
upperneck 12.8247 3.52956 -3.86859
head 7.21353 1.30425 -0.815543
rclavicle 1.68967e-015 -3.0911e-014
rhumerus -53.5228 -14.5558 -67.5893
rradius 27.3165
rwrist 24.353
rhand -16.3336 -24.4525
rfingers 7.12502
rthumb 9.87835 -54.2007
lclavicle 1.68967e-015 -3.0911e-014
lhumerus -53.0474 -0.535696 85.2324
lradius 20.7399
lwrist 17.9348
lhand -25.2613 -3.00637
lfingers 7.12502
lthumb 1.25922 26.9697
rfemur -79.4728 -2.25743 22.1157
rtibia 87.2084
rfoot -28.8 -8.83122
rtoes -0.0538982
lfemur -78.448 9.48508 -22.3057
ltibia 87.6244
lfoot -27.8223 13.5558
ltoes -6.93647
96
root 0.437688 13.5466 -16.407 22.9873 -1.91289 -2.05135
lowerback 22.6917 0.221121 -1.51445
upperback 7.41232 0.108676 2.53733
thorax -4.54516 0.015138 3.57729
lowerneck -19.7126 2.03343 -0.256217
upperneck 12.6308 3.48597 -3.8621
head 7.16271 1.2866 -0.817363
rclavicle 3.97569e-016 -1.96797e-014
rhumerus -54.615 -14.6625 -67.1347
rradius 27.1779
rwrist 24.5164
rhand -16.3725 -24.3512
rfingers 7.12502
rthumb 9.84083 -54.1012
lclavicle 3.97569e-016 -1.96797e-014
lhumerus -54.1141 -0.27718 85.057
lradius 20.5523
lwrist 17.8133
lhand -25.2073 -3.04972
lfingers 7.12502
lthumb 1.3114 26.926
rfemur -80.1478 -2.27241 22.1496
rtibia 87.8842
rfoot -29.0087 -9.12704
rtoes -0.0634749
lfemur -79.1339 9.37146 -22.3292
ltibia 88.2756
lfoot -27.9544 13.7221
ltoes -6.88921
